<svg viewBox="0 0 40 40" xmlns="http://www.w3.org/2000/svg">
    <path fill-rule="evenodd" clip-rule="evenodd" d="M31.25 8.75H28.75V11.25H26.25V13.75H23.75V16.25H21.25V18.75H18.75V16.25H16.25V13.75H13.75V11.25H11.25V8.75H8.75V11.25H11.25V13.75H13.75V16.25H16.25V18.75H18.75V21.25H16.25V23.75H13.75V26.25H11.25V28.75H8.75V31.25H11.25V28.75H13.75V26.25H16.25V23.75H18.75V21.25H21.25V23.75H23.75V26.25H26.25V28.75H28.75V31.25H31.25V28.75H28.75V26.25H26.25V23.75H23.75V21.25H21.25V18.75H23.75V16.25H26.25V13.75H28.75V11.25H31.25V8.75Z"/>
</svg>
