<svg width="28" height="18" viewBox="0 0 28 18" fill="none" 
    xmlns="http://www.w3.org/2000/svg">
    <path d="M21.4188 17.6296C17.5897 17.6296 14.8376 14.8618 14.8376 11.011C14.8376 7.16016 17.5897 4.39237 21.4188 4.39237C25.2479 4.39237 28 7.16016 28 11.011V11.4924H18.4274V11.6127C18.6068 13.4779 19.8632 14.8618 21.4188 14.8618C22.8547 14.8618 23.8718 13.9593 24.2308 12.3347C24.2308 12.2746 24.2906 12.2746 24.3504 12.2746H27.7607C27.8205 12.2746 27.8205 12.2746 27.8205 12.3347C27.8205 12.3347 27.8803 12.3949 27.8205 12.4551C27.3419 14.8017 25.8462 17.6296 21.4188 17.6296ZM21.4188 7.16016C19.9829 7.16016 18.906 8.12287 18.6068 9.50676V9.6271H24.2308V9.50676C23.8718 8.0627 22.7949 7.16016 21.4188 7.16016ZM0.119658 17.6296C0.0598291 17.6296 0 17.5695 0 17.5093V0.120339C0 0.0601694 0.0598291 0 0.119658 0H8.79487C11.188 0 13.1624 1.98559 13.1624 4.45253C13.1624 5.8966 12.4444 7.22033 11.3077 8.0627L11.188 8.18304L11.3675 8.24321C13.0427 8.96524 14.1197 10.5296 14.1197 12.3347C14.1197 15.283 11.7265 17.6296 8.8547 17.6296H0.119658ZM3.58974 14.0195H8.31624C8.91453 14.0195 9.45299 13.7788 9.8718 13.3576C10.2906 12.9364 10.4701 12.4551 10.4701 11.8534C10.4103 9.80761 8.31624 9.74744 7.89744 9.74744H3.58974V14.0195ZM3.58974 7.03982H7.89744C8.4359 7.03982 8.8547 6.79914 9.21368 6.43812C9.51282 6.01694 9.63248 5.53558 9.57265 4.99406C9.39316 4.21186 8.61539 3.61016 7.77778 3.61016H3.58974V7.03982ZM17.5299 3.61016C17.4701 3.61016 17.4103 3.54999 17.4103 3.48982V0.96271C17.4103 0.902541 17.4701 0.842371 17.5299 0.842371H25.2479C25.3077 0.842371 25.3675 0.902541 25.3675 0.96271V3.48982C25.3675 3.54999 25.3077 3.61016 25.2479 3.61016H17.5299Z" fill="black"/>
</svg>
