<svg width="22" height="22" viewBox="0 0 22 22" fill="none" 
    xmlns="http://www.w3.org/2000/svg">
    <path fill-rule="evenodd" clip-rule="evenodd" d="M10.9996 0C8.01215 0 7.63752 0.0126622 6.4643 0.0663676C5.29369 0.119636 4.49423 0.30564 3.79431 0.57766C3.07081 0.858849 2.45735 1.23479 1.84607 1.8465C1.23479 2.45778 0.858413 3.07125 0.57766 3.7943C0.30564 4.49422 0.119636 5.29369 0.0663676 6.46429C0.0126622 7.63751 0 8.01214 0 10.9996C0 13.987 0.0126622 14.3616 0.0663676 15.5348C0.119636 16.7054 0.30564 17.5049 0.57766 18.2048C0.85885 18.9283 1.23479 19.5418 1.84651 20.153C2.45822 20.7648 3.07125 21.1407 3.79474 21.4219C4.49423 21.6939 5.29413 21.8799 6.46473 21.9332C7.63796 21.9869 8.01258 21.9995 11 21.9995C13.9874 21.9995 14.362 21.9869 15.5353 21.9332C16.7059 21.8799 17.5058 21.6939 18.2053 21.4219C18.9288 21.1407 19.5422 20.7648 20.1535 20.153C20.7652 19.5413 21.1412 18.9283 21.4223 18.2048C21.6944 17.5053 21.8804 16.7054 21.9336 15.5348C21.9873 14.3616 22 13.987 22 10.9996C22 8.01214 21.9873 7.63751 21.9336 6.46429C21.8804 5.29369 21.6944 4.49378 21.4223 3.7943C21.1412 3.07081 20.7652 2.45735 20.1535 1.84607C19.5418 1.23435 18.9288 0.858412 18.2053 0.577223C17.5049 0.30564 16.7054 0.119636 15.5348 0.0663676C14.3616 0.0126622 13.987 0 10.9996 0ZM10.9995 5.35126C7.87981 5.35126 5.35129 7.88021 5.35129 10.9995C5.35129 14.1188 7.88024 16.6477 10.9995 16.6477C14.1188 16.6477 16.6478 14.1188 16.6478 10.9995C16.6478 7.88021 14.1192 5.35126 10.9995 5.35126ZM10.9995 14.6659C8.97444 14.6659 7.33315 13.0241 7.33315 10.9995C7.33315 8.97441 8.97487 7.33312 10.9995 7.33312C13.0242 7.33312 14.6659 8.97484 14.6659 10.9995C14.6659 13.0246 13.0246 14.6659 10.9995 14.6659ZM18.1913 5.12779C18.1913 5.85676 17.6004 6.44772 16.8714 6.44772C16.1424 6.44772 15.5515 5.85676 15.5515 5.12779C15.5515 4.39881 16.1424 3.80786 16.8714 3.80786C17.6004 3.80786 18.1913 4.39881 18.1913 5.12779Z" fill="black"/>
</svg>
