<svg width="20" height="20" viewBox="0 0 20 20" fill="none" 
    xmlns="http://www.w3.org/2000/svg">
    <path d="M20 12.2222V19.697H15.6566V12.7273C15.6566 10.9596 15.0505 9.79798 13.4343 9.79798C12.2222 9.79798 11.5152 10.6061 11.2121 11.3636C11.1111 11.6667 11.0606 12.0202 11.0606 12.4242V19.697H6.71717C6.71717 19.697 6.76768 7.87879 6.71717 6.66667H11.0606V8.53535C11.0606 8.53535 11.0606 8.58586 11.0101 8.58586H11.0606V8.53535C11.6162 7.62626 12.6768 6.36364 14.9495 6.36364C17.8283 6.36364 20 8.23232 20 12.2222ZM0 19.697H4.34343V6.66667H0V19.697ZM4.44444 2.22222C4.44444 3.43434 3.43434 4.44444 2.22222 4.44444C1.0101 4.44444 0 3.48485 0 2.22222C0 0.959596 1.0101 0 2.22222 0C3.48485 0 4.44444 1.0101 4.44444 2.22222Z" fill="black"/>
</svg>
