<svg width="24" height="21" viewBox="0 0 24 21"
    xmlns="http://www.w3.org/2000/svg">
    <path d="M22.4032 0.140982L1.16055 8.65638C-0.324145 9.23174 -0.324145 10.0373 0.817931 10.3825L6.07148 12.1086L8.12722 18.5526C8.35564 19.2431 8.24143 19.4732 8.92668 19.4732C9.49771 19.4732 9.72613 19.2431 10.0688 18.8979C10.2972 18.6677 11.4392 17.517 12.6955 16.2512L18.1775 20.3938C19.2054 20.9692 19.8906 20.624 20.2332 19.4732L23.8879 1.86707C24.3447 0.371127 23.3168 -0.31931 22.4032 0.140982ZM6.98515 11.7633L18.977 4.05346C19.548 3.70824 20.119 3.93839 19.6622 4.28361L9.38351 13.8347L9.04088 18.2074L6.98515 11.7633Z"/>
</svg>
