<svg width="100%" height="100%" viewBox="0 0 30 17" xmlns="http://www.w3.org/2000/svg">
    <path fill-rule="evenodd" clip-rule="evenodd" d="M28.5837 1.17099C28.7945 0.510431 28.5837 0.030025 27.6502 0.030025H24.5485C23.7655 0.030025 23.4042 0.450382 23.1934 0.900764C23.1934 0.900764 21.5974 4.74402 19.369 7.23614C18.6463 7.95675 18.315 8.19696 17.9235 8.19696C17.7127 8.19696 17.4417 7.95675 17.4417 7.29619V1.14097C17.4417 0.360304 17.2008 0 16.5383 0H11.6599C11.1781 0 10.877 0.360304 10.877 0.72061C10.877 1.47125 11.9912 1.6514 12.1116 3.75318V8.31706C12.1116 9.3079 11.931 9.48805 11.5395 9.48805C10.4855 9.48805 7.92586 5.61476 6.39008 1.20102C6.08894 0.33028 5.78781 0 5.00486 0H1.87306C0.969659 0 0.819092 0.420355 0.819092 0.870737C0.819092 1.68142 1.87306 5.76489 5.72758 11.1695C8.28723 14.8626 11.931 16.8443 15.2133 16.8443C17.2008 16.8443 17.4417 16.3939 17.4417 15.6433V12.8509C17.4417 11.9501 17.6224 11.8 18.2548 11.8C18.7065 11.8 19.5195 12.0402 21.3565 13.8117C23.4644 15.9135 23.8258 16.8743 25.0002 16.8743H28.1019C29.0053 16.8743 29.4269 16.4239 29.186 15.5532C28.9149 14.6825 27.8911 13.4214 26.5661 11.9201C25.8434 11.0794 24.7593 10.1486 24.428 9.69823C23.9763 9.09772 24.0968 8.85752 24.428 8.31706C24.3979 8.31706 28.1922 2.97252 28.5837 1.17099Z"/>
</svg>
