<svg width="40" height="40" viewBox="0 0 40 40" xmlns="http://www.w3.org/2000/svg">
    <path fill-rule="evenodd" clip-rule="evenodd" d="M14.5469 0.000488281H25.456V3.63685L29.0895 3.63684V7.2732H25.4531V3.63684L14.5469 3.63685V0.000488281ZM14.5465 3.63684H10.9102V7.2732H14.5465V3.63684ZM3.63636 10.9106H0V36.3652H3.63636V40.0005H36.3636V36.3652H39.9996V10.9106H36.3633V21.8169H29.0938V25.4533H36.3633V36.3641H3.63636V10.9106ZM36.3636 7.27322H3.63636V10.9096H36.3636V7.27322ZM10.9094 21.8169H3.63672V25.4533H10.9094V21.8169ZM10.9062 25.4536H14.5426V29.09H10.9062V25.4536ZM29.0895 29.09V25.4536H25.4531V29.09H29.0895ZM25.456 21.8169H14.5469V25.4533H25.456V21.8169Z" fill="#FF0000"/>
</svg>
