<svg width="41" height="20" viewBox="0 0 41 20" xmlns="http://www.w3.org/2000/svg">
    <path fill-rule="evenodd" clip-rule="evenodd" d="M3.33268 -0.000976562H13.333V3.33245H3.33268V-0.000976562ZM3.33342 3.33496H0V16.6687H3.33203V19.9965H13.3323V16.6684H16.6655V13.335H13.332V16.6631H3.33342V3.33496ZM40.0014 3.33496H36.668V16.6631H26.6694V13.335H23.3359V16.6684H26.668V19.9965H36.6682V16.6687H40.0014V3.33496ZM26.6672 -0.000976562H36.6674V3.33245H26.6672V-0.000976562ZM20.0014 6.66309H16.668V9.99651H20.0014V6.66309ZM13.332 3.33496H16.6655V6.66838H13.332V3.33496ZM23.3333 9.99897H19.9999V13.3324H23.3333V9.99897ZM23.3359 3.33496H26.6694V6.66838H23.3359V3.33496Z" fill="#FF0000"/>
</svg>
