<svg width="40" height="48" viewBox="0 0 40 48" xmlns="http://www.w3.org/2000/svg">
    <path fill-rule="evenodd" clip-rule="evenodd" d="M8.89062 0H31.1128V4.36328H35.5538V8.72699H31.1094V4.36371H8.89062V0ZM8.88878 4.36328H4.44434V8.72656H0V21.8177H4.44444V8.72699H8.88878V4.36328ZM8.88878 21.8203H4.44434V26.184H8.88878V21.8203ZM40.0001 8.72656H35.5557V21.8177H40.0001V8.72656ZM35.5538 21.8203H31.1094V26.1797H22.2228V17.4575H26.6693V13.0938H13.3359V17.4575H17.7783V26.1797H8.89062V30.5434H31.1128V26.184H35.5538V21.8203ZM8.89062 34.9102H31.1128V39.2739H8.89062V34.9102ZM26.6693 43.6367H13.3359V48.0004H26.6693V43.6367Z" fill="#FF0000"/>
</svg>
