<svg width="96" height="97" viewBox="0 0 96 97" fill="none"
    xmlns="http://www.w3.org/2000/svg">
    <g clip-path="url(#clip0)">
        <path fill-rule="evenodd" clip-rule="evenodd" d="M62.5304 0.00195312C72.168 0.00195312 76.9856 0.00195312 82.1736 1.64195C87.8376 3.70355 92.2984 8.16435 94.36 13.8284C96 19.0156 96 23.8348 96 33.4716V62.5324C96 72.17 96 76.9876 94.36 82.1756C92.2984 87.8396 87.8376 92.3004 82.1736 94.3612C76.9856 96.002 72.168 96.002 62.5304 96.002H33.4696C23.832 96.002 19.0136 96.002 13.8264 94.3612C8.1624 92.3004 3.7016 87.8396 1.64 82.1756C0 76.9876 0 72.17 0 62.5324V33.4716C0 23.8348 0 19.0156 1.64 13.8284C3.7016 8.16435 8.1624 3.70355 13.8264 1.64195C19.0136 0.00195312 23.832 0.00195312 33.4696 0.00195312H62.5304Z" fill="#1851F7"/>
    </g>
    <path fill-rule="evenodd" clip-rule="evenodd" d="M34 68.002H62V40.002H58V36.002H54V32.002H50V28.002H34V68.002ZM58 64.002H38V32.002H50V36.002H54V40.002H58V64.002Z" fill="white"/>
    <defs>
        <clipPath id="clip0">
            <rect width="96" height="96" fill="white" transform="translate(0 0.00195312)"/>
        </clipPath>
    </defs>
</svg>
