<svg width="96" height="96" viewBox="0 0 96 96" fill="none"
    xmlns="http://www.w3.org/2000/svg">
    <g clip-path="url(#clip0)">
        <path fill-rule="evenodd" clip-rule="evenodd" d="M84.8864 67.5177C84.9898 67.7729 85.0866 68.0333 85.177 68.2979C87.283 74.5446 84.372 81.5407 78.4638 84.4417C74.687 86.3071 70.518 86.2102 67.0252 84.6065C64.458 83.425 61.4967 84.6794 60.5087 87.3335C60.4549 87.4735 60.4 87.6161 60.3415 87.7581C60.3108 87.8337 60.2789 87.909 60.2459 87.984C57.525 94.2673 50.2832 97.5123 43.7962 95.3162C39.7873 93.9632 36.8904 90.9373 35.5522 87.3258C34.567 84.6791 31.5863 83.4837 29.0179 84.6584C28.7173 84.796 28.4078 84.9233 28.0912 85.0408C27.9648 85.0878 27.8379 85.1333 27.7097 85.1773C21.466 87.2777 14.4728 84.3744 11.5606 78.4617C9.69556 74.6846 9.79241 70.5156 11.3959 67.0231C12.577 64.4555 11.3226 61.4945 8.66852 60.5063C8.54568 60.4592 8.42107 60.4112 8.29645 60.3608C8.20314 60.3233 8.11042 60.2845 8.01828 60.2435C1.73264 57.5287 -1.50969 50.281 0.686119 43.7938C2.0368 39.7906 5.06298 36.8941 8.68211 35.5523C11.3291 34.567 12.5245 31.5863 11.3492 29.018C11.1567 28.5979 10.9848 28.16 10.8307 27.71C8.73053 21.4658 11.6333 14.4728 17.5463 11.5609C21.3237 9.69537 25.4921 9.79222 28.9848 11.396C31.5521 12.5773 34.5133 11.323 35.5014 8.66877L35.5067 8.65327C35.5876 8.44346 35.6709 8.22879 35.7648 8.01839C38.4791 1.73289 45.7268 -1.50989 52.2139 0.68622C56.2175 2.03675 59.1137 5.06293 60.4478 8.68546C61.433 11.3323 64.4137 12.5277 66.9821 11.3527C67.402 11.1602 67.8403 10.9882 68.2897 10.8342C74.534 8.73374 81.5272 11.6368 84.4394 17.5495C86.3044 21.3267 86.2076 25.4957 84.6041 28.988C83.4224 31.5556 84.6768 34.5168 87.3315 35.505C87.5459 35.5874 87.7661 35.672 87.9817 35.7678C94.2674 38.4826 97.5097 45.7302 95.3139 52.2175C93.9632 56.2205 90.937 59.1172 87.3256 60.4558C84.6791 61.441 83.4838 64.4217 84.6585 66.9899C84.7376 67.163 84.8138 67.3391 84.8864 67.5177Z" fill="#FC464A"/>
    </g>
    <path d="M42 40H54V44H42V40Z" fill="#06163E"/>
    <path d="M54 48H42V52H54V48Z" fill="#06163E"/>
    <path d="M42 56H54V60H42V56Z" fill="#06163E"/>
    <path fill-rule="evenodd" clip-rule="evenodd" d="M38 28V36H34V68H62V36H58V28H38ZM58 36H54V32H42V36H38V64H58V36Z" fill="#06163E"/>
    <defs>
        <clipPath id="clip0">
            <rect width="96" height="96" fill="white"/>
        </clipPath>
    </defs>
</svg>
