<svg width="96" height="96" viewBox="0 0 96 96" fill="none"
    xmlns="http://www.w3.org/2000/svg">
    <path d="M47.737 0C50.0512 3.31392 54.7642 3.80928 57.7168 1.04892C59.2914 4.77155 63.7984 6.23599 67.2604 4.14982C68.0266 8.11849 72.1307 10.488 75.9507 9.16718C75.8751 13.2084 79.3968 16.3794 83.408 15.8817C82.4938 19.8189 85.2793 23.6528 89.3063 24C87.5934 27.6611 89.5209 31.9904 93.3878 33.1672C90.9511 36.3921 91.9364 41.0276 95.4741 42.9826C92.4202 45.6305 92.4202 50.3695 95.4741 53.0174C91.9364 54.9724 90.9511 59.6079 93.3878 62.8328C89.5209 64.0096 87.5934 68.3389 89.3063 72C85.2793 72.3472 82.4938 76.1811 83.408 80.1183C79.3968 79.6206 75.8751 82.7916 75.9507 86.8328C72.1307 85.512 68.0266 87.8815 67.2604 91.8502C63.7984 89.764 59.2914 91.2284 57.7168 94.9511C54.7642 92.1907 50.0512 92.6861 47.737 96C45.4229 92.6861 40.7099 92.1907 37.7573 94.9511C36.1827 91.2284 31.6757 89.764 28.2137 91.8502C27.4475 87.8815 23.3434 85.512 19.5234 86.8328C19.599 82.7916 16.0773 79.6206 12.0661 80.1183C12.9804 76.1811 10.1948 72.3472 6.16783 72C7.88069 68.3389 5.95317 64.0096 2.08634 62.8328C4.52295 59.6079 3.53766 54.9724 0 53.0174C3.05387 50.3695 3.05387 45.6305 0 42.9826C3.53766 41.0276 4.52295 36.3921 2.08634 33.1672C5.95317 31.9904 7.88069 27.6611 6.16783 24C10.1948 23.6528 12.9804 19.8189 12.0661 15.8817C16.0773 16.3794 19.599 13.2084 19.5234 9.16718C23.3434 10.488 27.4475 8.11848 28.2137 4.14982C31.6757 6.23599 36.1827 4.77156 37.7573 1.04892C40.7099 3.80928 45.4229 3.31392 47.737 0Z" fill="#D0DBD7"/>
    <path fill-rule="evenodd" clip-rule="evenodd" d="M50 26H54V68H50V64H46V60H50V34H46V30H50V26ZM42 38V34H46V38H42ZM42 56H30V52V42V38H42V42H34V52H42V56ZM42 56V60H46V56H42ZM62 36H58V40H62V54H58V58H62V54H66V40H62V36Z" fill="#FF0000"/>
</svg>
