<svg width="96" height="96" viewBox="0 0 96 96" fill="none"
    xmlns="http://www.w3.org/2000/svg">
    <circle cx="48" cy="48" r="48" fill="#2A5D46"/>
    <mask id="mask0" mask-type="alpha" maskUnits="userSpaceOnUse" x="0" y="0" width="96" height="96">
        <rect width="96" height="96" rx="48" fill="#2A5D46"/>
    </mask>
    <g mask="url(#mask0)">
        <path d="M-14 47.6913L-9 50.3512C-4 53.0112 6 58.3311 16 59.6611C26 60.9911 36 58.3311 46 53.0112C56 47.6913 66 39.7114 76 39.0464C86 38.3814 96 45.0313 101 48.3562L106 51.6812" stroke="#06163E" stroke-width="2"/>
        <path d="M-28.1656 54.5302L-20.4963 50.3499C-12.8271 46.1696 2.51139 37.8089 17.2735 39.4252C32.0357 41.0416 46.2215 52.635 60.9425 54.964C75.6635 57.293 90.9197 50.3576 105.929 47.6981C120.938 45.0385 135.7 46.6549 143.081 47.4631L150.462 48.2712" stroke="white" stroke-width="2"/>
        <path d="M-33 36.6621L-30.0483 41.1917C-27.0967 45.7212 -21.0592 54.7804 -15.1558 59.3099C-9.11833 63.8395 -3.215 63.8395 2.8225 61.2511C8.72583 58.6628 14.7633 53.4862 20.6667 48.3096C26.57 43.1329 32.6075 37.9563 38.5108 37.9563C44.5483 37.9563 50.4517 43.1329 56.4892 49.6037C62.3925 56.0745 68.43 63.8395 74.3333 61.2511C80.2367 58.6628 86.2742 45.7212 92.1775 39.8975C98.215 34.0738 104.118 35.368 110.156 39.8975C116.059 44.4271 122.097 52.192 125.048 56.0745L128 59.957" stroke="#FF0000" stroke-width="2"/>
    </g>
</svg>
