<svg width="0" height="0" viewBox="0 0 34 28" fill="" xmlns="http://www.w3.org/2000/svg">
<path d="M33.875 12.125L33.875 15.875L7.625 15.875L7.625 19.625L3.875 19.625L3.875 15.875L0.124999 15.875L0.125 12.125L3.875 12.125L3.875 8.375L7.625 8.375L7.625 12.125L33.875 12.125Z" fill=""/>
<path d="M7.625 8.375L7.625 4.625L11.375 4.625L11.375 8.375L7.625 8.375Z" fill=""/>
<path d="M7.625 19.625L11.375 19.625L11.375 23.375L7.625 23.375L7.625 19.625Z" fill=""/>
<path d="M11.375 0.874999L11.375 4.625L15.125 4.625L15.125 0.874999L11.375 0.874999Z" fill=""/>
<path d="M15.125 23.375L11.375 23.375L11.375 27.125L15.125 27.125L15.125 23.375Z" fill=""/>
</svg>
