<svg viewBox="0 0 40 40" xmlns="http://www.w3.org/2000/svg">
<path d="M11.25 10H18.75V12.5H11.25V10Z"/>
<path d="M11.25 20H8.75V12.5H11.25V20Z"/>
<path d="M13.75 22.5H11.25V20H13.75V22.5Z"/>
<path d="M16.25 25H13.75V22.5H16.25V25Z"/>
<path d="M18.75 27.5H16.25V25H18.75V27.5Z"/>
<path d="M21.25 27.5V30H18.75V27.5H21.25Z"/>
<path d="M23.75 25V27.5H21.25V25H23.75Z"/>
<path d="M26.25 22.5V25H23.75V22.5H26.25Z"/>
<path d="M28.75 20V22.5H26.25V20H28.75Z"/>
<path d="M28.75 12.5V15V20H31.25V12.5H28.75Z"/>
<path d="M21.25 12.5V10C23.75 10 26.25 10 28.75 10V12.5H21.25Z"/>
<path d="M21.25 12.5V15H18.75V12.5H21.25Z"/>
</svg>
