<svg viewBox="0 0 73 72" fill="none" xmlns="http://www.w3.org/2000/svg">
<path d="M20.75 18H34.25V22.5H20.75V18Z"/>
<path d="M20.75 36H16.25V22.5H20.75V36Z"/>
<path d="M25.25 40.5H20.75V36H25.25V40.5Z"/>
<path d="M29.75 45H25.25V40.5H29.75V45Z"/>
<path d="M34.25 49.5H29.75V45H34.25V49.5Z"/>
<path d="M38.75 49.5V54H34.25V49.5H38.75Z"/>
<path d="M43.25 45V49.5H38.75V45H43.25Z"/>
<path d="M47.75 40.5V45H43.25V40.5H47.75Z"/>
<path d="M52.25 36V40.5H47.75V36H52.25Z"/>
<path d="M52.25 22.5V27V36H56.75V22.5H52.25Z"/>
<path d="M38.75 22.5V18C43.25 18 47.75 18 52.25 18V22.5H38.75Z"/>
<path d="M38.75 22.5V27H34.25V22.5H38.75Z"/>
</svg>
