<svg viewBox="0 0 64 64" xmlns="http://www.w3.org/2000/svg">
    <path fill-rule="evenodd" clip-rule="evenodd" d="M34 10V6H30V10H26V14L30 14V18L18 18V22H14V26H10V30V36H6V40H10V46V50H14V54H18V58L46 58V54H50V50H54V46V40H58V36H54V30V26H50V22L46 22V18L34 18V14H38V10H34ZM34 10V14H30V10L34 10ZM46 22V26H50V30V46V50H46V54H18V50H14V46V30V26H18V22L46 22ZM22 32V36H18V32H22ZM26 32H22V28H26V32ZM26 32H30V36H26V32ZM26 44V40H22V44H26ZM38 44V48H26V44H38ZM38 44V40H42V44H38ZM38 32V36H34V32H38ZM42 32H38V28H42V32ZM42 32H46V36H42V32Z"/>
</svg>
