<svg width="" height="" viewBox="0 0 36 36" fill="none" xmlns="http://www.w3.org/2000/svg">
<path fill-rule="evenodd" clip-rule="evenodd" d="M21.375 5.625H14.625V7.875H10.125V10.125H7.875V14.625H5.625V21.375H7.875V25.875H10.125V28.125H14.625V30.375H21.375V28.125H25.875V25.875H28.125V21.375H30.375V14.625H28.125V10.125H25.875V7.875H21.375V5.625ZM21.375 7.875V10.125H25.875V14.625H28.125V21.375H25.875V25.875H21.375V28.125H14.625V25.875H10.125V21.375H7.875V14.625H10.125V10.125H14.625V7.875H21.375ZM16.875 21.375H19.125V23.625H16.875V21.375ZM19.125 12.375H16.875V19.125H19.125V12.375Z" fill="#FF0000"/>
</svg>
