<svg width="" height="" viewBox="0 0 40 40" fill="" xmlns="http://www.w3.org/2000/svg">
<path d="M31.25 18.75L31.25 21.25L13.75 21.25L13.75 23.75L11.25 23.75L11.25 21.25L8.75 21.25L8.75 18.75L11.25 18.75L11.25 16.25L13.75 16.25L13.75 18.75L31.25 18.75Z" fill=""/>
<path d="M13.75 16.25L13.75 13.75L16.25 13.75L16.25 16.25L13.75 16.25Z" fill=""/>
<path d="M13.75 23.75L16.25 23.75L16.25 26.25L13.75 26.25L13.75 23.75Z" fill=""/>
<path d="M16.25 11.25L16.25 13.75L18.75 13.75L18.75 11.25L16.25 11.25Z" fill=""/>
<path d="M18.75 26.25L16.25 26.25L16.25 28.75L18.75 28.75L18.75 26.25Z" fill=""/>
</svg>
