<svg width="64" height="64" viewBox="0 0 64 64" fill="none" xmlns="http://www.w3.org/2000/svg">
    <circle cx="32" cy="32" r="32" fill="#FF0000"/>
    <path fill-rule="evenodd" clip-rule="evenodd" d="M24 18.6667H34.6666V21.3334H24V18.6667ZM21.3333 24.0001V21.3334H24V24.0001H21.3333ZM21.3333 34.6667H18.6666V24.0001H21.3333V34.6667ZM24 37.3334H21.3333V34.6667H24V37.3334ZM34.6666 37.3334V40.0001H24V37.3334H34.6666ZM37.3333 34.6667H34.6666V37.3334H37.3333L37.3333 40.0001H40V42.6667H42.6666V45.3334H45.3333V42.6667H42.6666V40.0001H40V37.3334L37.3333 37.3334V34.6667ZM37.3333 24.0001H40V34.6667H37.3333V24.0001ZM37.3333 24.0001V21.3334H34.6666V24.0001H37.3333Z" fill="black"/>
</svg>
