<svg width="" height="" viewBox="0 0 24 18" fill="none" xmlns="http://www.w3.org/2000/svg">
<path d="M23.25 7.75L23.25 10.25L5.75 10.25L5.75 12.75L3.25 12.75L3.25 10.25L0.75 10.25L0.75 7.75L3.25 7.75L3.25 5.25L5.75 5.25L5.75 7.75L23.25 7.75Z" fill="#7F7F7F"/>
<path d="M5.75 5.25L5.75 2.75L8.25 2.75L8.25 5.25L5.75 5.25Z" fill="#7F7F7F"/>
<path d="M5.75 12.75L8.25 12.75L8.25 15.25L5.75 15.25L5.75 12.75Z" fill="#7F7F7F"/>
<path d="M8.25 0.249999L8.25 2.75L10.75 2.75L10.75 0.249999L8.25 0.249999Z" fill="#7F7F7F"/>
<path d="M10.75 15.25L8.25 15.25L8.25 17.75L10.75 17.75L10.75 15.25Z" fill="#7F7F7F"/>
</svg>
