<svg width="65" height="65" viewBox="0 0 65 65" fill="none"
    xmlns="http://www.w3.org/2000/svg">
    <g clip-path="url(#clip0)">
        <g clip-path="url(#clip1)">
            <circle cx="32.0016" cy="32.0016" r="32.0016" fill="#1851F7"/>
        </g>
        <path fill-rule="evenodd" clip-rule="evenodd" d="M26.6684 16.667H24.0016V22.0006H21.3348V24.6674L18.668 24.6674V36.668H21.3348L21.3348 24.6674H42.6692V36.668L40.0024 36.668V39.3348H37.3356V42.0016H26.6684V39.3348H24.0016V36.668H21.3348V39.3348H24.0016V42.0016H26.6684L26.6684 44.6684H30.6686V48.6686H33.3354L33.3354 51.3354H38.669V48.6686H33.3354V44.6684H37.3356L37.3356 42.0016H40.0024V39.3348H42.6692V36.668H45.336V24.6674L42.6692 24.6674V22.0006H40.0024V16.667H37.3356V22.0006H26.6684V16.667ZM26.6684 31.3344H24.0016V34.0012H26.6684L26.6684 36.668H29.3352V39.3348H32.002V36.668L29.3352 36.668V34.0012H26.6684V31.3344Z" fill="white"/>
    </g>
    <defs>
        <clipPath id="clip0">
            <rect width="64.0032" height="64.0032" fill="white"/>
        </clipPath>
        <clipPath id="clip1">
            <rect width="64.0032" height="64.0032" fill="white"/>
        </clipPath>
    </defs>
</svg>
