<svg width="" height="" viewBox="0 0 69 12" fill="" xmlns="http://www.w3.org/2000/svg">
        <path fill-rule="evenodd" clip-rule="evenodd" d="M5.93983 10.357C5.61014 10.6122 5.22863 10.8186 4.79644 10.9767L4.79491 10.9772C4.36964 11.1261 3.91375 11.2 3.42808 11.2C3.04755 11.2 2.67711 11.1524 2.31705 11.0571C1.96832 10.962 1.64423 10.8294 1.34687 10.6595L1.34257 10.657C1.05591 10.4765 0.800734 10.2638 0.577275 10.0191C0.352451 9.77285 0.175361 9.4993 0.04655 9.19874L0 9.09013L0.787774 8.77076L0.831717 8.87715C1.0161 9.32354 1.34642 9.6806 1.83103 9.94763C2.3179 10.2159 2.84955 10.3503 3.42808 10.3503C3.80754 10.3503 4.16572 10.2955 4.50322 10.1865C4.84255 10.0666 5.13452 9.91278 5.38054 9.72602C5.62633 9.52916 5.81628 9.30438 5.95227 9.05183L5.95299 9.05049C6.09821 8.7891 6.17015 8.51488 6.17015 8.22621C6.17015 7.88398 6.09214 7.59154 5.94016 7.34458C5.78387 7.09061 5.57299 6.86441 5.3056 6.66634L5.3017 6.66345C5.04177 6.45351 4.73541 6.26228 4.3816 6.09043L4.3804 6.08984C4.03146 5.91536 3.667 5.74083 3.28702 5.56625L2.20216 5.07031C1.84657 4.89252 1.53129 4.69822 1.2569 4.4872C0.565173 3.96558 0.207113 3.33147 0.207113 2.58759C0.207113 2.21839 0.294205 1.87465 0.468701 1.55837C0.641281 1.24557 0.873111 0.976217 1.16307 0.75065C1.4623 0.515579 1.80349 0.334538 2.18561 0.207063C2.57929 0.0688575 2.99368 0 3.42808 0C3.736 0 4.03879 0.0371547 4.33623 0.111472C4.64301 0.185556 4.92954 0.291552 5.19546 0.42974C5.47373 0.568977 5.72057 0.746013 5.93538 0.960832C6.15042 1.17587 6.32289 1.41829 6.45225 1.68779L6.50271 1.79291L5.73527 2.15532L5.68638 2.04892C5.5237 1.69485 5.24019 1.40846 4.82646 1.19174L4.82456 1.19074C4.41051 0.964003 3.94588 0.849655 3.42808 0.849655C3.10012 0.849655 2.78812 0.899311 2.49148 0.998192L2.48919 0.998956C2.2025 1.08793 1.95249 1.21573 1.73782 1.38161C1.53303 1.53763 1.36751 1.72264 1.24148 1.93591L1.24027 1.93796C1.11787 2.13568 1.05677 2.35138 1.05677 2.58759C1.05677 2.84401 1.12279 3.07428 1.25427 3.28131C1.38983 3.48437 1.57001 3.67002 1.79669 3.83772C2.03817 4.00869 2.31588 4.17542 2.63024 4.33774C2.94778 4.49137 3.28081 4.64506 3.62933 4.79882C4.02201 4.9745 4.41008 5.16073 4.79245 5.35704C5.18972 5.54535 5.54646 5.76036 5.86216 6.0024L5.86514 6.00468C6.62818 6.62995 7.0198 7.37153 7.0198 8.22621C7.0198 8.64649 6.92262 9.04104 6.72827 9.40814C6.53528 9.77267 6.27269 10.0886 5.94164 10.3556L5.93983 10.357Z" fill=""/>
        <path fill-rule="evenodd" clip-rule="evenodd" d="M16.1436 11.1228H15.2939V6.02483H9.48537V11.1228H8.63572V0.0772413H9.48537V5.17517H15.2939V0.0772413H16.1436V11.1228Z" fill=""/>
        <path fill-rule="evenodd" clip-rule="evenodd" d="M24.5062 0.926896H19.0838V5.17517H23.3784V6.02483H19.0838V10.2731H24.6606V11.1228H18.2342V0.0772413H24.5062V0.926896Z" fill=""/>
        <path fill-rule="evenodd" clip-rule="evenodd" d="M58.5551 0.926896H53.1328V5.17517H57.4274V6.02483H53.1328V10.2731H58.7096V11.1228H52.2831V0.0772413H58.5551V0.926896Z" fill=""/>
        <path d="M36.5307 5.17517V0.926896H41.9531V0.0772413H35.6811V11.1228H42.1075V10.2731H36.5307V6.02483H40.8253V5.17517H36.5307Z" fill=""/>
        <path d="M48.2484 5.40089C47.9649 5.51794 47.6613 5.57683 47.3364 5.57683H46.011L49.6061 11.1228H50.6077L47.5754 6.41962C47.9278 6.39619 48.2657 6.31277 48.5884 6.16932C48.9713 5.99918 49.3026 5.77507 49.5811 5.49655C49.8698 5.20787 50.0943 4.87113 50.2544 4.48725C50.4257 4.10142 50.511 3.6892 50.511 3.25186C50.511 2.81452 50.4257 2.40231 50.2544 2.01647C50.0943 1.63259 49.8698 1.29585 49.5811 1.00718C49.2924 0.718502 48.9557 0.494011 48.5718 0.33387C48.186 0.162589 47.7738 0.0772413 47.3364 0.0772413H43.5748V11.1228H44.4244V0.926896H47.3364C47.6606 0.926896 47.9636 0.990687 48.2468 1.11763L48.2499 1.11892C48.5342 1.23654 48.778 1.4026 48.9828 1.61712L48.9847 1.61903C49.1896 1.82393 49.3512 2.06845 49.4693 2.35386L49.4713 2.35831C49.5976 2.63035 49.6614 2.92767 49.6614 3.25186C49.6614 3.57603 49.5976 3.87908 49.4707 4.16225L49.4699 4.16401C49.352 4.43927 49.19 4.68476 48.9838 4.90108C48.7787 5.10591 48.534 5.27265 48.2484 5.40089Z" fill=""/>
        <path d="M67.5659 0.0772413L63.9078 9.79681L60.2649 0.0772413H59.353L63.5029 11.1228H64.3278L68.462 0.0772413H67.5659Z" fill=""/>
        <path d="M33.5169 0.0772413L29.8589 9.79682L26.2159 0.0772413H25.304L29.454 11.1228H30.2788L34.413 0.0772413H33.5169Z" fill=""/>
        </svg>
        