<svg viewBox="0 0 119 20" xmlns="http://www.w3.org/2000/svg">
<path d="M8.79464 19.5966C9.57293 19.3136 10.2637 18.9428 10.8629 18.4818L10.8695 18.4766C11.4736 17.9923 11.9545 17.4176 12.3081 16.7537C12.6666 16.0805 12.846 15.3561 12.846 14.5868C12.846 13.0164 12.118 11.6628 10.7363 10.5373L10.731 10.533L10.7256 10.5288C10.1581 10.0964 9.51876 9.7135 8.80949 9.37907C8.13515 9.03498 7.45172 8.70896 6.75923 8.401L6.75722 8.40012C6.14798 8.13294 5.56605 7.86599 5.01139 7.59927C4.46842 7.32047 3.99099 7.03531 3.57752 6.74447C3.19867 6.4656 2.90177 6.16033 2.67996 5.83064C2.47309 5.506 2.36864 5.14554 2.36864 4.73862C2.36864 4.36631 2.46488 4.02965 2.65808 3.71942L2.66252 3.71194C2.86899 3.36462 3.13936 3.06347 3.4773 2.80753L3.47959 2.80577C3.83412 2.53345 4.2494 2.32174 4.7303 2.17339L4.73869 2.17061C5.23645 2.00568 5.76103 1.92243 6.3146 1.92243C7.19064 1.92243 7.97005 2.11441 8.66232 2.49125L8.66928 2.49487C9.36042 2.85474 9.8199 3.32198 10.0821 3.88933L10.2611 4.27646L12.0117 3.45469L11.827 3.0722C11.5887 2.57874 11.2711 2.13509 10.876 1.74237C10.4817 1.35046 10.0291 1.02781 9.52018 0.774505C9.03692 0.525023 8.51738 0.334204 7.96294 0.20104C7.42301 0.0670047 6.87329 0 6.3146 0C5.52818 0 4.77583 0.123898 4.06005 0.373471C3.36705 0.603475 2.74548 0.930948 2.19904 1.35757C1.66695 1.76912 1.23982 2.26206 0.921743 2.83513C0.596655 3.42084 0.434681 4.05778 0.434681 4.73862C0.434681 6.1203 1.10825 7.28766 2.36615 8.23085C2.86086 8.60894 3.42692 8.95517 4.06204 9.27084L4.06865 9.27413L5.97532 10.1405C6.64068 10.4444 7.27863 10.7482 7.88923 11.0516L7.89361 11.0538C8.50263 11.3478 9.02639 11.6731 9.46817 12.0278L9.47507 12.0333L9.48221 12.0386C9.93169 12.3696 10.2822 12.7445 10.5406 13.1619C10.7833 13.5539 10.912 14.0236 10.912 14.5868C10.912 15.0527 10.7957 15.4951 10.5582 15.92L10.5555 15.9249C10.3322 16.3372 10.0192 16.7069 9.60954 17.0335C9.19904 17.3428 8.70859 17.6005 8.13305 17.803C7.56412 17.9853 6.95871 18.0776 6.3146 18.0776C5.3339 18.0776 4.43659 17.8515 3.61494 17.4014C2.80162 16.9559 2.25897 16.368 1.95651 15.6401L1.79566 15.253L0 15.9766L0.170397 16.3718C0.406668 16.9198 0.731451 17.4183 1.14275 17.8661C1.54905 18.3084 2.01285 18.6923 2.53285 19.0178L2.54053 19.0226L2.54841 19.0271C3.08799 19.3336 3.67337 19.5716 4.30297 19.7423L4.30604 19.7431C4.95753 19.9146 5.62739 20 6.3146 20C7.19062 20 8.0165 19.8674 8.78904 19.5986L8.79464 19.5966Z" />
<path fill-rule="evenodd" clip-rule="evenodd" d="M26.6714 19.8651H28.6054V0.134907H26.6714V9.03879H16.9066V0.134907H14.9727V19.8651H16.9066V10.9612H26.6714V19.8651Z" />
<path fill-rule="evenodd" clip-rule="evenodd" d="M33.5001 2.05734H43.0274V0.134907H31.5661V19.8651H43.2988V17.9427H33.5001V10.9612H41.0459V9.03879H33.5001V2.05734Z" />
<path fill-rule="evenodd" clip-rule="evenodd" d="M58.2151 0.134907L51.9408 16.7065L45.6924 0.134907H43.6188L51.0762 19.8651H52.8312L60.2602 0.134907H58.2151Z" />
<path fill-rule="evenodd" clip-rule="evenodd" d="M63.6122 2.05734H73.1395V0.134907H61.6782V19.8651H73.4109V17.9427H63.6122V10.9612H71.158V9.03879H63.6122V2.05734Z" />
<path fill-rule="evenodd" clip-rule="evenodd" d="M88.2587 19.8651L82.907 11.614C83.4207 11.5458 83.9174 11.406 84.3957 11.1947C85.0913 10.8874 85.6964 10.4811 86.2063 9.97433C86.7337 9.45004 87.1438 8.83851 87.436 8.14314C87.7492 7.44077 87.9048 6.69116 87.9048 5.89882C87.9048 5.10648 87.7492 4.35687 87.436 3.65451C87.1438 2.95914 86.7337 2.34761 86.2063 1.82331C85.6788 1.29902 85.0636 0.891365 84.3641 0.600957C83.6575 0.28955 82.9034 0.134907 82.1063 0.134907H75.2764V19.8651H77.2103V2.05734H82.1063C82.646 2.05734 83.1476 2.16262 83.6157 2.37121L83.6213 2.37372L83.627 2.37606C84.099 2.5702 84.5016 2.84316 84.8395 3.19505L84.8465 3.20198C85.1848 3.53834 85.4531 3.94076 85.6502 4.41415L85.6536 4.42239L85.6574 4.43049C85.8649 4.87474 85.9708 5.36225 85.9708 5.89882C85.9708 6.43531 85.8649 6.93389 85.655 7.39919L85.6523 7.4056C85.4557 7.86156 85.1863 8.26771 84.843 8.6261C84.504 8.96219 84.0983 9.23763 83.6214 9.45089C83.1522 9.64297 82.6485 9.7403 82.1063 9.7403H79.3716L85.9744 19.8651H88.2587Z" />
<path fill-rule="evenodd" clip-rule="evenodd" d="M92.2399 2.05734H101.767V0.134907H90.3059V19.8651H102.039V17.9427H92.2399V10.9612H99.7857V9.03879H92.2399V2.05734Z" />
<path fill-rule="evenodd" clip-rule="evenodd" d="M116.955 0.134907L110.681 16.7065L104.432 0.134907H102.359L109.816 19.8651H111.571L119 0.134907H116.955Z" />
</svg>
