<svg width="24" height="20" viewBox="0 0 24 20" fill="none" xmlns="http://www.w3.org/2000/svg">
<path d="M23.9994 2.31442C23.1162 2.69512 22.1568 2.96922 21.167 3.07582C22.1873 2.4667 22.9639 1.50733 23.3294 0.365229C22.3852 0.928668 21.3193 1.33982 20.2076 1.55301C19.3092 0.593647 18.03 -0.000244141 16.6138 -0.000244141C13.888 -0.000244141 11.6951 2.20782 11.6951 4.91841C11.6951 5.29911 11.7408 5.67982 11.817 6.04529C7.73585 5.8321 4.09634 3.88291 1.67509 0.89821C1.2487 1.62916 1.00505 2.4667 1.00505 3.38038C1.00505 5.08592 1.87305 6.5935 3.19789 7.47673C2.3908 7.44627 1.6294 7.21785 0.974595 6.85237C0.974595 6.8676 0.974595 6.89806 0.974595 6.91329C0.974595 9.30409 2.66491 11.2837 4.91866 11.7406C4.5075 11.8472 4.06589 11.9081 3.62427 11.9081C3.30449 11.9081 2.99993 11.8776 2.69536 11.8319C3.31971 13.7811 5.13185 15.1973 7.29424 15.243C5.60392 16.5679 3.48722 17.3445 1.18779 17.3445C0.776631 17.3445 0.395929 17.3293 0 17.2836C2.17761 18.6846 4.76638 19.4917 7.55311 19.4917C16.5986 19.4917 21.5477 11.9995 21.5477 5.49708C21.5477 5.28389 21.5477 5.07069 21.5325 4.8575C22.4918 4.15701 23.3294 3.28901 23.9994 2.31442Z" fill="black"/>
</svg>
