<svg width="100%" height="100%" viewBox="0 0 22 22" xmlns="http://www.w3.org/2000/svg">
<path fill-rule="evenodd" clip-rule="evenodd" d="M10.9993 -0.00012207C8.01195 -0.00012207 7.63733 0.0125398 6.46413 0.0662439C5.29356 0.119511 4.49411 0.30551 3.79421 0.577523C3.07074 0.858705 2.45729 1.23463 1.84602 1.84634C1.23476 2.4576 0.858392 3.07105 0.577646 3.79409C0.305633 4.49399 0.119633 5.29343 0.066366 6.46401C0.0126619 7.6372 0 8.01182 0 10.9992C0 13.9865 0.0126619 14.3611 0.066366 15.5343C0.119633 16.7049 0.305633 17.5043 0.577646 18.2042C0.858828 18.9277 1.23476 19.5411 1.84646 20.1524C2.45816 20.7641 3.07117 21.14 3.79465 21.4212C4.49411 21.6932 5.294 21.8792 6.46457 21.9325C7.63776 21.9862 8.01238 21.9989 10.9997 21.9989C13.9871 21.9989 14.3617 21.9862 15.5349 21.9325C16.7055 21.8792 17.5053 21.6932 18.2048 21.4212C18.9283 21.14 19.5417 20.7641 20.153 20.1524C20.7647 19.5407 21.1406 18.9277 21.4218 18.2042C21.6938 17.5048 21.8798 16.7049 21.9331 15.5343C21.9868 14.3611 21.9995 13.9865 21.9995 10.9992C21.9995 8.01182 21.9868 7.6372 21.9331 6.46401C21.8798 5.29343 21.6938 4.49355 21.4218 3.79409C21.1406 3.07061 20.7647 2.45716 20.153 1.8459C19.5413 1.2342 18.9283 0.858269 18.2048 0.577087C17.5045 0.30551 16.705 0.119511 15.5344 0.0662439C14.3613 0.0125398 13.9866 -0.00012207 10.9993 -0.00012207ZM10.9992 5.351C7.87961 5.351 5.35115 7.87989 5.35115 10.9991C5.35115 14.1183 7.88005 16.6472 10.9992 16.6472C14.1185 16.6472 16.6473 14.1183 16.6473 10.9991C16.6473 7.87989 14.1189 5.351 10.9992 5.351ZM10.9992 14.6654C8.97421 14.6654 7.33296 13.0237 7.33296 10.9991C7.33296 8.97406 8.97465 7.33281 10.9992 7.33281C13.0238 7.33281 14.6655 8.9745 14.6655 10.9991C14.6655 13.0241 13.0243 14.6654 10.9992 14.6654ZM18.1909 5.12754C18.1909 5.8565 17.5999 6.44743 16.871 6.44743C16.142 6.44743 15.5511 5.8565 15.5511 5.12754C15.5511 4.39858 16.142 3.80764 16.871 3.80764C17.5999 3.80764 18.1909 4.39858 18.1909 5.12754Z" fill="black"/>
</svg>
