<svg width="100%" height="100%" viewBox="0 0 32 32" fill="none" xmlns="http://www.w3.org/2000/svg">
    <path d="M26.4026 6.14098L5.16053 14.6562C3.67586 15.2315 3.67586 16.037 4.81791 16.3822L10.0713 18.1083L12.127 24.5522C12.3554 25.2426 12.2412 25.4727 12.9265 25.4727C13.4975 25.4727 13.7259 25.2426 14.0685 24.8974C14.2969 24.6673 15.439 23.5166 16.6952 22.2508L22.177 26.3933C23.2049 26.9687 23.8901 26.6234 24.2327 25.4727L27.8873 7.86703C28.3441 6.37112 27.3163 5.6807 26.4026 6.14098ZM10.985 17.7631L22.9765 10.0534C23.5475 9.70815 24.1185 9.93829 23.6617 10.2835L13.3833 19.8343L13.0407 24.207L10.985 17.7631Z" fill="white"/>
</svg>
