<svg width="100%" height="100%" viewBox="0 0 32 32" fill="none" xmlns="http://www.w3.org/2000/svg">
    <path d="M28.9994 9.31466C28.1162 9.69536 27.1568 9.96947 26.167 10.0761C27.1873 9.46694 27.9639 8.50758 28.3294 7.36547C27.3852 7.92891 26.3193 8.34007 25.2076 8.55326C24.3092 7.59389 23.03 7 21.6138 7C18.888 7 16.6951 9.20807 16.6951 11.9187C16.6951 12.2994 16.7408 12.6801 16.817 13.0455C12.7358 12.8323 9.09634 10.8832 6.67508 7.89845C6.2487 8.6294 6.00505 9.46694 6.00505 10.3806C6.00505 12.0862 6.87305 13.5937 8.19789 14.477C7.3908 14.4465 6.6294 14.2181 5.97459 13.8526C5.97459 13.8678 5.97459 13.8983 5.97459 13.9135C5.97459 16.3043 7.66491 18.284 9.91866 18.7408C9.5075 18.8474 9.06589 18.9083 8.62427 18.9083C8.30449 18.9083 7.99992 18.8779 7.69536 18.8322C8.31971 20.7814 10.1319 22.1976 12.2942 22.2433C10.6039 23.5681 8.48722 24.3447 6.18779 24.3447C5.77663 24.3447 5.39593 24.3295 5 24.2838C7.17761 25.6848 9.76638 26.4919 12.5531 26.4919C21.5986 26.4919 26.5477 18.9997 26.5477 12.4973C26.5477 12.2841 26.5477 12.0709 26.5325 11.8577C27.4918 11.1573 28.3294 10.2893 28.9994 9.31466Z" fill="white"/>
</svg>
