<svg width="100%" height="100%" viewBox="0 0 32 32" fill="none" xmlns="http://www.w3.org/2000/svg">
    <path fill-rule="evenodd" clip-rule="evenodd" d="M28.3875 9.36957C28.5803 8.76556 28.3875 8.32628 27.5339 8.32628H24.6978C23.9819 8.32628 23.6515 8.71065 23.4587 9.12247C23.4587 9.12247 21.9993 12.6367 19.9617 14.9154C19.3009 15.5744 18.998 15.794 18.64 15.794C18.4473 15.794 18.1995 15.5744 18.1995 14.9704V9.34211C18.1995 8.62829 17.9792 8.29883 17.3734 8.29883H12.9127C12.4721 8.29883 12.1968 8.62828 12.1968 8.95774C12.1968 9.64411 13.2156 9.80885 13.3257 11.7307V15.9038C13.3257 16.8098 13.1605 16.9746 12.8026 16.9746C11.8388 16.9746 9.49833 13.4329 8.09403 9.39702C7.81868 8.60083 7.54332 8.29883 6.82741 8.29883H3.96374C3.13768 8.29883 3 8.68319 3 9.09502C3 9.8363 3.96374 13.5702 7.48825 18.512C9.82875 21.889 13.1605 23.701 16.1619 23.701C17.9792 23.701 18.1995 23.2892 18.1995 22.6028V20.0495C18.1995 19.2259 18.3647 19.0886 18.9429 19.0886C19.356 19.0886 20.0994 19.3082 21.7791 20.9281C23.7065 22.8499 24.037 23.7285 25.1108 23.7285H27.947C28.773 23.7285 29.1585 23.3166 28.9382 22.5204C28.6904 21.7243 27.7542 20.5711 26.5427 19.1984C25.8818 18.4297 24.8906 17.5786 24.5877 17.1667C24.1746 16.6177 24.2848 16.398 24.5877 15.9038C24.5601 15.9038 28.0296 11.0169 28.3875 9.36957Z" fill="white"/>
</svg>
