<svg width="18" height="14" xmlns="http://www.w3.org/2000/svg">
 <g>
  <title>Layer 1</title>
  <g transform="rotate(180 9,7.000000000000001) " id="svg_6">
   <path id="svg_1" fill="black" d="m18,6l0,2l-14,0l0,2l-2,0l0,-2l-2,0l0,-2l2,0l0,-2l2,0l0,2l14,0z"/>
   <path id="svg_2" fill="black" d="m4,4l0,-2l2,0l0,2l-2,0z"/>
   <path id="svg_3" fill="black" d="m4,10l2,0l0,2l-2,0l0,-2z"/>
   <path id="svg_4" fill="black" d="m6,0l0,2l2,0l0,-2l-2,0z"/>
   <path id="svg_5" fill="black" d="m8,12l-2,0l0,2l2,0l0,-2z"/>
  </g>
 </g>
</svg>