<svg width="48" height="48" viewBox="0 0 48 48" fill="none" xmlns="http://www.w3.org/2000/svg">
  <path d="M37.5 22.5L37.5 25.5L16.5 25.5L16.5 28.5L13.5 28.5L13.5 25.5L10.5 25.5L10.5 22.5L13.5 22.5L13.5 19.5L16.5 19.5L16.5 22.5L37.5 22.5Z" fill="white"/>
  <path d="M16.5 19.5L16.5 16.5L19.5 16.5L19.5 19.5L16.5 19.5Z" fill="white"/>
  <path d="M16.5 28.5L19.5 28.5L19.5 31.5L16.5 31.5L16.5 28.5Z" fill="white"/>
  <path d="M19.5 13.5L19.5 16.5L22.5 16.5L22.5 13.5L19.5 13.5Z" fill="white"/>
  <path d="M22.5 31.5L19.5 31.5L19.5 34.5L22.5 34.5L22.5 31.5Z" fill="white"/>
</svg>
