<svg width="48" height="48" viewBox="0 0 48 48" fill="none" xmlns="http://www.w3.org/2000/svg">
  <path d="M10.5 25.5L10.5 22.5L31.5 22.5L31.5 19.5L34.5 19.5L34.5 22.5L37.5 22.5L37.5 25.5L34.5 25.5L34.5 28.5L31.5 28.5L31.5 25.5L10.5 25.5Z" fill="white"/>
  <path d="M31.5 28.5L31.5 31.5L28.5 31.5L28.5 28.5L31.5 28.5Z" fill="white"/>
  <path d="M31.5 19.5L28.5 19.5L28.5 16.5L31.5 16.5L31.5 19.5Z" fill="white"/>
  <path d="M28.5 34.5L28.5 31.5L25.5 31.5L25.5 34.5L28.5 34.5Z" fill="white"/>
  <path d="M25.5 16.5L28.5 16.5L28.5 13.5L25.5 13.5L25.5 16.5Z" fill="white"/>
</svg>
