<svg width="65" height="65" viewBox="0 0 65 65" fill="none"
    xmlns="http://www.w3.org/2000/svg">
    <g clip-path="url(#clip0)">
        <g clip-path="url(#clip1)">
            <circle cx="32.0016" cy="32.0016" r="32.0016" fill="#1851F7"/>
        </g>
        <path fill-rule="evenodd" clip-rule="evenodd" d="M26.6684 16.6675H24.0016V22.0011H21.3348V24.6679L18.668 24.6679V36.6685H21.3348L21.3348 24.6679H42.6692V36.6685L40.0024 36.6685V39.3353H37.3356V42.0021H26.6684V39.3353H24.0016V36.6685H21.3348V39.3353H24.0016V42.0021H26.6684L26.6684 44.6689H30.6686V48.6691H33.3354L33.3354 51.3359H38.669V48.6691H33.3354V44.6689H37.3356L37.3356 42.0021H40.0024V39.3353H42.6692V36.6685H45.336V24.6679L42.6692 24.6679V22.0011H40.0024V16.6675H37.3356V22.0011H26.6684V16.6675ZM26.6684 31.3349H24.0016V34.0017H26.6684L26.6684 36.6685H29.3352V39.3353H32.002V36.6685L29.3352 36.6685V34.0017H26.6684V31.3349Z" fill="white"/>
    </g>
    <defs>
        <clipPath id="clip0">
            <rect width="64.0032" height="64.0032" fill="white"/>
        </clipPath>
        <clipPath id="clip1">
            <rect width="64.0032" height="64.0032" fill="white"/>
        </clipPath>
    </defs>
</svg>
