<svg width="64" height="64" viewBox="0 0 64 64" fill="none"
    xmlns="http://www.w3.org/2000/svg">
    <path fill-rule="evenodd" clip-rule="evenodd" d="M41.6869 0C48.112 0 51.3237 0 54.7824 1.09333C58.5584 2.46773 61.5323 5.4416 62.9067 9.2176C64 12.6757 64 15.8885 64 22.3131V41.6869C64 48.112 64 51.3237 62.9067 54.7824C61.5323 58.5584 58.5584 61.5323 54.7824 62.9061C51.3237 64 48.112 64 41.6869 64H22.3131C15.888 64 12.6757 64 9.2176 62.9061C5.4416 61.5323 2.46773 58.5584 1.09333 54.7824C0 51.3237 0 48.112 0 41.6869V22.3131C0 15.8885 0 12.6757 1.09333 9.2176C2.46773 5.4416 5.4416 2.46773 9.2176 1.09333C12.6757 0 15.888 0 22.3131 0H41.6869Z" fill="#1851F7"/>
    <path fill-rule="evenodd" clip-rule="evenodd" d="M22.666 45.3332H41.3327V26.6665H38.666V23.9998H35.9993V21.3332H33.3327V18.6665H22.666V45.3332ZM38.666 42.6665H25.3327V21.3332H33.3327V23.9998H35.9993V26.6665H38.666V42.6665Z" fill="white"/>
</svg>
