<svg width="65" height="65" viewBox="0 0 65 65" fill="none"
    xmlns="http://www.w3.org/2000/svg">
    <g clip-path="url(#clip0)">
        <path d="M36.7189 61.9152C34.1954 64.5961 29.9601 64.7539 27.4604 62.0486C27.3105 61.8831 27.1527 61.7173 26.9875 61.5595C23.4613 58.0343 18.8008 56.3462 14.1875 56.4961C10.504 56.6143 7.39685 53.7356 7.53878 50.0528L7.54001 50.0267L7.54368 49.8845C7.54918 49.7069 7.55408 49.5312 7.55469 49.3507C7.55408 44.3667 5.45632 39.8791 2.08854 36.7168C-0.592845 34.1929 -0.750682 29.9578 1.95395 27.4581L2.09894 27.3246L2.22129 27.2078C2.29654 27.1351 2.37056 27.0609 2.44336 26.9848C5.96776 23.4597 7.65624 18.7989 7.50636 14.1851C7.38767 10.5022 10.266 7.39497 13.9489 7.5453L14.1196 7.54637L14.3062 7.54927C14.4206 7.55126 14.5344 7.5531 14.6506 7.5531C19.6347 7.5534 24.1226 5.45565 27.2848 2.08812C29.8078 -0.593064 34.043 -0.750583 36.5433 1.95461C36.6926 2.12023 36.8504 2.28586 37.0168 2.44338C40.5419 5.96873 45.2023 7.65678 49.8163 7.50706C53.4991 7.38885 56.6063 10.2676 56.465 13.9505V13.9826C56.457 14.2077 56.4491 14.4264 56.4491 14.6523C56.4497 19.6366 58.5468 24.1241 61.9152 27.2865C64.596 29.8105 64.7538 34.0454 62.0492 36.5452C61.884 36.6951 61.7182 36.8528 61.5598 37.0186C58.0354 40.5436 56.3475 45.2045 56.498 49.8178C56.6167 53.5008 53.7377 56.6078 50.0549 56.4579C49.8181 56.458 49.5893 56.4499 49.3532 56.4499C44.3685 56.4499 39.8811 58.5477 36.7189 61.9152Z" fill="#5CFF6D"/>
    </g>
    <path d="M23.5268 46.6198L32.4797 16.001L44.8612 35.9526L15.3359 28.051L30.7653 48.0026L47.3375 20.5444L18.7647 21.3346L38.0037 41.0887L19.5266 38.3231L41.242 17.1862L23.5268 46.6198Z" stroke="#06163E" stroke-width="1.3334"/>
    <defs>
        <clipPath id="clip0">
            <rect width="64.0032" height="64.0032" fill="white"/>
        </clipPath>
    </defs>
</svg>
