<svg width="64" height="64" viewBox="0 0 64 64" fill="none"
    xmlns="http://www.w3.org/2000/svg">
    <circle cx="32" cy="32" r="32" fill="#2A5D46"/>
    <mask id="mask0" style="mask-type:alpha" maskUnits="userSpaceOnUse" x="0" y="0" width="64" height="64">
        <rect width="64" height="64" rx="32" fill="#2A5D46"/>
    </mask>
    <g mask="url(#mask0)">
        <path d="M-9.33398 31.7942L-6.00065 33.5675C-2.66732 35.3408 3.99935 38.8874 10.666 39.7741C17.3327 40.6607 23.9994 38.8874 30.666 35.3408C37.3327 31.7942 43.9994 26.4743 50.666 26.0309C57.3327 25.5876 63.9994 30.0209 67.3327 32.2375L70.666 34.4541" stroke="#06163E" stroke-width="2"/>
        <path d="M-18.777 36.3535L-13.6642 33.5666C-8.55139 30.7797 1.67426 25.2059 11.5157 26.2835C21.3571 27.3611 30.8144 35.09 40.6283 36.6426C50.4423 38.1953 60.6131 33.5717 70.6192 31.7987C80.6253 30.0257 90.4668 31.1033 95.3875 31.642L100.308 32.1808" stroke="white" stroke-width="2"/>
        <path d="M-22 24.4414L-20.0322 27.4611C-18.0644 30.4808 -14.0394 36.5202 -10.1039 39.5399C-6.07889 42.5596 -2.14333 42.5596 1.88167 40.8341C5.81722 39.1086 9.84222 35.6575 13.7778 32.2064C17.7133 28.7553 21.7383 25.3042 25.6739 25.3042C29.6989 25.3042 33.6344 28.7553 37.6594 33.0691C41.595 37.383 45.62 42.5596 49.5556 40.8341C53.4911 39.1086 57.5161 30.4808 61.4517 26.5984C65.4767 22.7159 69.4122 23.5786 73.4372 26.5984C77.3728 29.6181 81.3978 34.7947 83.3656 37.383L85.3333 39.9713" stroke="#FF0000" stroke-width="2"/>
    </g>
</svg>
