<svg width="65" height="65" viewBox="0 0 65 65" fill="none"
    xmlns="http://www.w3.org/2000/svg">
    <g clip-path="url(#clip0)">
        <path fill-rule="evenodd" clip-rule="evenodd" d="M15.2979 59.6976C16.6544 63.3759 20.8829 64.9456 24.4557 63.3369C28.9366 61.3137 34.2035 61.0786 39.1041 63.1087C39.3369 63.205 39.5582 63.306 39.791 63.4023C43.3514 65.0497 47.4471 63.1669 48.8307 59.497C50.5617 54.8994 54.1197 51.0037 59.0211 48.9731C59.2441 48.8745 59.4711 48.7868 59.6949 48.7069C63.3725 47.3505 64.9421 43.1218 63.334 39.548C61.3103 35.0667 61.0759 29.7998 63.1054 24.8985C63.2004 24.67 63.2996 24.452 63.4021 24.2272L63.407 24.2149C65.0462 20.6512 63.1635 16.5549 59.494 15.1712C54.8967 13.4393 51.0019 9.88137 48.9716 4.97907C48.8725 4.75652 48.7848 4.52946 48.7053 4.30568C47.3488 0.627416 43.1203 -0.94254 39.5475 0.666354C35.0666 2.68961 29.7997 2.92466 24.8991 0.894439C24.7852 0.847305 24.6737 0.798941 24.5622 0.750578C24.4467 0.700371 24.3311 0.650163 24.2122 0.600981C20.6526 -1.04664 16.5569 0.836444 15.1734 4.5061C13.4415 9.10387 9.88346 12.9996 4.98207 15.0302C4.87962 15.0755 4.77635 15.1183 4.67308 15.1591C4.55177 15.2075 4.42965 15.2532 4.30834 15.2964C0.630663 16.6528 -0.938938 20.8815 0.669176 24.4553C2.69284 28.9366 2.92727 34.2035 0.897861 39.1046C0.804423 39.329 0.706883 39.5429 0.608527 39.7634L0.596234 39.7884C-1.04303 43.3521 0.839664 47.4482 4.50915 48.8321C9.10646 50.5638 13.0013 54.1217 15.0324 59.024C15.1307 59.2466 15.2184 59.4738 15.2979 59.6976Z" fill="#FF0000"/>
    </g>
    <path fill-rule="evenodd" clip-rule="evenodd" d="M35.9996 16.001H27.9992V18.6678H22.6656V21.3346H19.9988V26.6682H17.332V34.6686V45.3358H19.9988V42.669H22.6656V40.0022H25.3324L25.3324 42.669H27.9992V45.3358H30.666V42.669H33.3328V45.3358H35.9996V42.669H38.6664V40.0022H41.3332V42.669H44L44 45.3358H46.6668V34.6686V26.6682H44V21.3346H41.3332V18.6678H35.9996V16.001ZM35.9996 18.6678V21.3346H41.3332V26.6682H44L44 34.6686L44 40.0022H41.3332V37.3354H38.6664V40.0022H35.9996V42.669H33.3328L33.3328 40.0022H30.666L30.666 42.669H27.9992V40.0022H25.3324V37.3354H22.6656V40.0022H19.9988V34.6686V26.6682H22.6656V21.3346H27.9992V18.6678H35.9996ZM30.666 24.0014V29.335H25.3324V24.0014H30.666ZM38.6664 29.335V24.0014H33.3328V29.335H38.6664Z" fill="white"/>
    <defs>
        <clipPath id="clip0">
            <rect width="64.0032" height="64.0032" fill="white"/>
        </clipPath>
    </defs>
</svg>
