<svg width="" height="" viewBox="0 0 30 24" fill="none" xmlns="http://www.w3.org/2000/svg">
<path d="M0.375 13.625L0.374999 10.375L23.125 10.375L23.125 7.125L26.375 7.125L26.375 10.375L29.625 10.375L29.625 13.625L26.375 13.625L26.375 16.875L23.125 16.875L23.125 13.625L0.375 13.625Z" fill="#FF0000"/>
<path d="M23.125 16.875L23.125 20.125L19.875 20.125L19.875 16.875L23.125 16.875Z" fill="#FF0000"/>
<path d="M23.125 7.125L19.875 7.125L19.875 3.875L23.125 3.875L23.125 7.125Z" fill="#FF0000"/>
<path d="M19.875 23.375L19.875 20.125L16.625 20.125L16.625 23.375L19.875 23.375Z" fill="#FF0000"/>
<path d="M16.625 3.875L19.875 3.875L19.875 0.625001L16.625 0.625001L16.625 3.875Z" fill="#FF0000"/>
</svg>
