<svg width="" height="" viewBox="0 0 16 16" fill="" xmlns="http://www.w3.org/2000/svg">
        <path fill-rule="evenodd" clip-rule="evenodd" d="M13.625 0.125H15.875V2.375H13.625V0.125ZM11.375 4.625V2.375H13.625V4.625H11.375ZM9.125 6.875V4.625H11.375V6.875H9.125ZM9.125 9.125V6.875H6.875V4.625H4.625V2.375H2.375V0.125H0.125V2.375H2.375V4.625H4.625V6.875H6.875V9.125H4.625V11.375H2.375V13.625H0.125V15.875H2.375V13.625H4.625V11.375H6.875V9.125H9.125ZM11.375 11.375H9.125V9.125H11.375V11.375ZM13.625 13.625H11.375V11.375H13.625V13.625ZM13.625 13.625H15.875V15.875H13.625V13.625Z" fill="black"/>
        </svg>
        