<svg viewBox="0 0 50 50" xmlns="http://www.w3.org/2000/svg">
        <path d="M26.5625 14.0625H29.6875V17.1875H32.8125V20.3125H35.9375V23.4375H39.0625V26.5625H35.9375V29.6875H32.8125V32.8125H29.6875V35.9375H26.5625V32.8125H29.6875V29.6875H32.8125V26.5625H35.9375V23.4375H32.8125V20.3125H29.6875V17.1875H26.5625V14.0625Z"/>
        <path d="M10.9375 14.0625H14.0625V17.1875H17.1875V20.3125H20.3125V23.4375H23.4375V26.5625H20.3125V29.6875H17.1875V32.8125H14.0625V35.9375H10.9375V32.8125H14.0625V29.6875H17.1875V26.5625H20.3125V23.4375H17.1875V20.3125H14.0625V17.1875H10.9375V14.0625Z"/>
</svg>

