<svg width="" height="" viewBox="0 0 351 76" fill="none" xmlns="http://www.w3.org/2000/svg">
        <path d="M10.264 61H16.024V17.8H41.944V61H47.704V12.04H10.264V61ZM70.9122 32.2H85.3122V26.44H70.9122V32.2ZM65.1522 55.24H70.9122V49.48H65.1522V37.96H70.9122V32.2H65.1522V26.44H59.3922V75.4H65.1522V55.24ZM91.0722 55.24V32.2H85.3122V55.24H91.0722ZM70.9122 61H85.3122V55.24H70.9122V61ZM125.789 26.44H105.629V32.2H125.789V26.44ZM131.549 55.24V32.2H125.789V55.24H131.549ZM99.8686 55.24H105.629V32.2H99.8686V55.24ZM105.629 61H125.789V55.24H105.629V61ZM141.306 61H187.386V26.44H181.626V55.24H167.226V26.44H161.466V55.24H147.066V26.44H141.306V61ZM198.189 61H203.949V55.24H209.709V49.48H203.949V26.44H198.189V61ZM221.229 61H226.989V26.44H221.229V37.96H215.469V43.72H221.229V61ZM209.709 49.48H215.469V43.72H209.709V49.48ZM237.775 61H260.815V55.24H243.535V46.6H260.815V40.84H243.535V32.2H260.815V26.44H237.775V61ZM266.575 40.84V32.2H260.815V40.84H266.575ZM266.575 55.24V46.6H260.815V55.24H266.575ZM305.106 26.44H299.346V32.2H305.106V26.44ZM276.306 61H282.066V46.6H293.586V40.84H282.066V26.44H276.306V61ZM299.346 40.84V32.2H293.586V40.84H299.346ZM293.586 55.24H299.346V46.6H293.586V55.24ZM299.346 61H305.106V55.24H299.346V61ZM335.391 26.44H318.111V32.2H335.391V26.44ZM329.631 55.24H335.391V61H341.151V32.2H335.391V37.96H318.111V43.72H335.391V49.48H329.631V55.24ZM312.351 37.96H318.111V32.2H312.351V37.96ZM312.351 55.24H318.111V43.72H312.351V55.24ZM318.111 61H329.631V55.24H318.111V61Z" fill="white"/>
        </svg>
        