<svg width="" height="" viewBox="0 0 212 60" fill="none" xmlns="http://www.w3.org/2000/svg">
<path d="M51.0311 53.8508H59.6204V33.5537C59.6204 29.0817 62.7126 25.9854 67.179 25.9854C71.6455 25.9854 74.7376 29.0817 74.7376 33.5537V53.8508H83.327V32.8658C83.327 23.9213 77.4862 18.0731 69.5841 18.0731C63.0562 18.0731 59.964 22.2013 59.964 22.2013H59.6204V5.68848H51.0311V53.8508Z" fill="white"/>
<path d="M91.8895 53.8503H100.479V18.7607H91.8895V53.8503ZM91.5459 13.2564H100.822V5H91.5459V13.2564Z" fill="white"/>
<path d="M112.152 45.594C112.152 50.7541 115.244 53.8504 121.085 53.8504H128.644V46.2819H123.147C121.429 46.2819 120.742 45.594 120.742 43.8738V27.0171H128.644V18.7607H120.742V8.78418H112.152V18.7607H106.655V27.0171H112.152V45.594Z" fill="white"/>
<path d="M158.886 40.7774C158.199 43.1855 156.138 46.6257 150.984 46.6257C145.83 46.6257 141.708 42.4974 141.708 36.3052C141.708 30.1129 145.83 25.9846 150.984 25.9846C156.138 25.9846 158.199 29.4248 158.886 31.489H167.476C166.445 26.3286 161.978 18.0723 150.984 18.0723C140.677 18.0723 133.118 25.6407 133.118 36.3052C133.118 46.9696 140.677 54.5379 150.984 54.5379C161.978 54.5379 166.445 46.2815 167.476 40.7774H158.886Z" fill="white"/>
<path d="M174.704 53.8508H183.293V33.5537C183.293 29.0817 186.386 25.9854 190.852 25.9854C195.319 25.9854 198.411 29.0817 198.411 33.5537V53.8508H207V32.8658C207 23.9213 201.159 18.0731 193.257 18.0731C186.729 18.0731 183.637 22.2013 183.637 22.2013H183.293V5.68848H174.704V53.8508Z" fill="white"/>
<path d="M18.2531 53.423H26.8286V38.9744H40.0817V30.3832H26.8286V15.9346H18.2531V30.3832H5V38.9744H18.2531V53.423Z" fill="white"/>
</svg>
