<svg width="" height="" viewBox="0 0 237 60" fill="none" xmlns="http://www.w3.org/2000/svg">
<path d="M95.7283 29.1298V46.5776H89.3239V30.2436C89.3239 25.7888 87.1891 22.819 82.208 22.819C77.9385 22.819 74.3808 26.16 74.3808 31.7285V46.5776H67.9763V5H74.3808V20.2204C76.1597 17.993 79.3619 16.8793 83.2756 16.8793C90.7472 16.5081 95.7283 21.7053 95.7283 29.1298Z" fill="white"/>
<path d="M97.8557 34.7025V17.2549H104.26V33.5889C104.26 38.0436 106.395 41.0135 111.02 41.0135C114.934 41.0135 118.848 37.6724 118.848 32.104V17.2549H125.252V46.2106H118.848V43.6121C117.069 45.8395 114.222 46.9531 110.308 46.9531C102.481 47.3244 97.8557 42.4983 97.8557 34.7025Z" fill="white"/>
<path d="M168.663 29.8711C168.663 25.4163 166.528 22.4465 161.902 22.4465C157.989 22.4465 154.431 25.7875 154.431 31.356V46.2051H148.026V29.8711C148.026 25.4163 145.892 22.4465 141.266 22.4465C137.353 22.4465 133.795 25.7875 133.795 30.9847V46.2051H127.39V17.2493H133.795V19.8479C135.574 17.9917 138.42 16.5068 142.334 16.5068C146.959 16.5068 150.517 17.9918 152.652 21.3329C154.787 18.363 158.344 16.5068 162.97 16.5068C170.441 16.5068 175.067 21.3328 175.067 29.1286V46.5763H168.663V29.8711Z" fill="white"/>
<path d="M197.488 38.0375H204.248C202.113 43.6059 197.132 47.3182 190.728 47.3182C182.188 47.3182 175.784 41.0073 175.784 32.0978C175.784 23.5596 181.833 16.8774 190.372 16.8774C198.555 16.8774 204.604 23.5596 204.604 32.0978C204.604 33.2115 204.604 33.9539 204.604 34.6963H182.544C183.256 38.7799 186.458 41.7498 190.728 41.7498C193.574 41.3785 196.064 40.2649 197.488 38.0375ZM182.544 29.1279H197.843C197.132 25.0444 194.286 22.8171 190.372 22.8171C186.458 22.8171 183.256 25.0444 182.544 29.1279Z" fill="white"/>
<path d="M220.259 31.7287L231.644 46.5778H223.817L216.345 36.9259L208.873 46.5778H201.402L212.787 32.0999L201.758 17.6221H209.941L217.057 26.9028L224.173 17.6221H232L220.259 31.7287Z" fill="white"/>
<path d="M28.1265 53.9999C40.899 53.9999 51.2531 43.1966 51.2531 29.8701C51.2531 16.5435 40.899 5.74023 28.1265 5.74023C15.3541 5.74023 5 16.5435 5 29.8701C5 43.1966 15.3541 53.9999 28.1265 53.9999Z" stroke="white" stroke-width="1.8597" stroke-miterlimit="10"/>
<path d="M28.1233 53.997V17.6167" stroke="white" stroke-width="1.8597" stroke-miterlimit="10"/>
<path d="M28.837 17.6167L42.0014 49.1711" stroke="white" stroke-width="1.8597" stroke-miterlimit="10"/>
<path d="M27.4201 17.6167L14.2557 49.1711" stroke="white" stroke-width="1.8597" stroke-miterlimit="10"/>
<path d="M8.1936 17.6167H48.0425" stroke="white" stroke-width="1.8597" stroke-miterlimit="10"/>
</svg>
