<svg width="" height="" viewBox="0 0 277 36" fill="none" xmlns="http://www.w3.org/2000/svg">
<path d="M0.3 35.536H3.82V24.712C5.36 26.472 7.692 27.44 10.464 27.44C16.404 27.44 20.32 23.26 20.32 16.308C20.32 9.312 16.14 5.616 10.992 5.616C8.132 5.616 5.316 6.76 3.82 9.048V6.056H0.3V35.536ZM3.82 18.244V15.736C3.82 11.16 7.12 8.74 10.376 8.74C14.38 8.74 16.8 11.82 16.8 16.44C16.8 21.192 14.336 24.316 10.464 24.316C6.9 24.316 3.82 22.072 3.82 18.244ZM24.7716 27H28.3356V13.14C28.3356 10.544 31.7236 9.444 34.5396 9.444H36.1236V6.056H34.2316C32.1636 6.056 29.5236 6.672 28.1156 9.092V6.056H24.7716V27ZM56.9215 17.276C56.9655 16.88 56.9655 16.176 56.9655 15.428C56.9655 9.268 53.2695 5.616 47.7695 5.616C42.2695 5.616 37.8695 9.224 37.8695 16.528C37.8695 23.832 41.9615 27.44 47.4615 27.44C52.4335 27.44 55.5575 24.712 56.4375 21.148L53.3135 20.488C52.6095 22.512 50.8055 24.404 47.4615 24.404C43.7655 24.404 41.4335 21.984 41.2575 17.276H56.9215ZM47.7695 8.608C51.4655 8.608 53.5335 11.16 53.6215 14.504H41.3895C41.9615 10.588 44.3375 8.608 47.7695 8.608ZM59.7168 21.104C60.5088 25.46 63.7648 27.44 68.6488 27.44C74.1928 27.44 77.0088 24.932 77.0088 21.324C77.0088 17.936 75.1168 16 70.5408 15.164L67.8568 14.68C65.3928 14.24 63.8528 13.668 63.8528 11.688C63.8528 9.84 65.6128 8.608 68.4728 8.608C71.7288 8.608 73.1808 10.236 73.7528 12.304L76.9648 11.6C76.3928 8.388 73.6648 5.616 68.5608 5.616C63.6768 5.616 60.4648 7.992 60.4648 11.776C60.4648 15.428 62.7968 17.012 66.7128 17.716L69.4408 18.2C72.4768 18.728 73.6208 19.564 73.6208 21.412C73.6208 23.304 71.9928 24.448 68.7368 24.448C65.5688 24.448 63.7208 23.172 63.0168 20.532L59.7168 21.104ZM99.0755 17.276C99.1195 16.88 99.1195 16.176 99.1195 15.428C99.1195 9.268 95.4235 5.616 89.9235 5.616C84.4235 5.616 80.0235 9.224 80.0235 16.528C80.0235 23.832 84.1155 27.44 89.6155 27.44C94.5875 27.44 97.7115 24.712 98.5915 21.148L95.4675 20.488C94.7635 22.512 92.9595 24.404 89.6155 24.404C85.9195 24.404 83.5875 21.984 83.4115 17.276H99.0755ZM89.9235 8.608C93.6195 8.608 95.6875 11.16 95.7755 14.504H83.5435C84.1155 10.588 86.4915 8.608 89.9235 8.608ZM103.279 27H106.799V14.46C106.799 10.984 109.483 8.784 112.827 8.784C116.479 8.784 117.975 10.808 117.975 13.668V27H121.495V13.14C121.495 8.212 118.415 5.616 113.531 5.616C110.891 5.616 108.119 6.76 106.711 8.916V6.056H103.279V27ZM138.463 27V23.744H135.339C132.875 23.744 131.687 22.688 131.687 19.696V9.312H138.243V6.056H131.687V0.467998H128.123V6.056H124.471V9.312H128.123V19.74C128.123 24.756 129.663 27 135.207 27H138.463ZM156.812 27H160.244V6.056H156.724V18.596C156.724 22.072 154.04 24.272 150.696 24.272C147.176 24.272 145.724 22.248 145.724 19.388V6.056H142.204V19.916C142.204 24.844 145.108 27.44 149.992 27.44C152.632 27.44 155.404 26.296 156.812 24.14V27ZM165.951 27H169.471V14.46C169.471 10.984 171.935 8.784 175.147 8.784C178.623 8.784 180.075 10.808 180.075 13.668V27H183.595V14.46C183.595 10.984 186.103 8.784 189.315 8.784C192.791 8.784 194.199 10.808 194.199 13.668V27H197.719V13.14C197.719 8.212 194.683 5.616 189.975 5.616C187.115 5.616 184.123 6.936 182.803 9.444C181.747 7.156 179.327 5.616 175.807 5.616C173.343 5.616 170.747 6.716 169.383 8.74V6.056H165.951V27ZM202.833 27H207.541V22.16H202.833V27ZM221.245 27.44C227.141 27.44 231.101 23.48 231.101 16.484C231.101 9.4 227.141 5.616 221.245 5.616C215.305 5.616 211.169 9.4 211.169 16.484C211.169 23.612 215.437 27.44 221.245 27.44ZM221.245 24.316C217.197 24.316 214.689 21.28 214.689 16.484C214.689 11.6 217.065 8.74 221.245 8.74C225.469 8.74 227.581 11.644 227.581 16.484C227.581 21.28 225.469 24.316 221.245 24.316ZM235.542 27H239.062V14.46C239.062 10.984 241.746 8.784 245.09 8.784C248.742 8.784 250.238 10.808 250.238 13.668V27H253.758V13.14C253.758 8.212 250.678 5.616 245.794 5.616C243.154 5.616 240.382 6.76 238.974 8.916V6.056H235.542V27ZM276.93 17.276C276.974 16.88 276.974 16.176 276.974 15.428C276.974 9.268 273.278 5.616 267.778 5.616C262.278 5.616 257.878 9.224 257.878 16.528C257.878 23.832 261.97 27.44 267.47 27.44C272.442 27.44 275.566 24.712 276.446 21.148L273.322 20.488C272.618 22.512 270.814 24.404 267.47 24.404C263.774 24.404 261.442 21.984 261.266 17.276H276.93ZM267.778 8.608C271.474 8.608 273.542 11.16 273.63 14.504H261.398C261.97 10.588 264.346 8.608 267.778 8.608Z" fill="white"/>
</svg>
