<svg width="" height="" viewBox="0 0 151 60" fill="none" xmlns="http://www.w3.org/2000/svg">
<path d="M68.7642 59.9994V54.7588H100.28V59.9994H68.7642Z" fill="white"/>
<path d="M5.53617 46.5332H0V13.964H5.19404V18.6841C6.0874 17.152 7.42029 15.9244 9.01953 15.1607C10.7951 14.3343 12.7358 13.925 14.6934 13.964H17.6303V19.2313H15.1689C12.4348 19.2313 10.1466 19.7563 8.30419 20.8061C6.46182 21.856 5.53908 23.247 5.53617 24.979V46.5332Z" fill="white"/>
<path d="M51.1115 46.5338H45.8511V42.2899C44.7854 43.9006 43.28 45.1719 41.5146 45.9509C39.5223 46.8225 37.3659 47.2539 35.1919 47.2147C30.5947 47.2147 26.9276 45.6872 24.1906 42.632C21.4537 39.5776 20.0867 35.425 20.0896 30.1758C20.0896 24.9737 21.5025 20.8571 24.3283 17.826C27.1542 14.795 30.9353 13.2779 35.6714 13.275C37.6307 13.2579 39.5716 13.6424 41.3769 14.405C43.0295 15.0841 44.4943 16.1523 45.6465 17.5191V0.00878906H51.1115V46.5338ZM35.6714 42.3561C38.8146 42.3561 41.2627 41.3878 43.016 39.4511C44.7699 37.5145 45.6465 34.8528 45.6465 31.4658V28.5919C45.6465 25.3533 44.7699 22.7997 43.016 20.9312C41.2627 19.0628 38.8828 18.1256 35.8761 18.1197C32.7363 18.1197 30.2304 19.2141 28.3583 21.4028C26.4862 23.5916 25.5532 26.5115 25.5591 30.1624C25.5591 33.8548 26.47 36.8085 28.2917 39.0245C30.1133 41.2397 32.5733 42.3507 35.6714 42.3561Z" fill="white"/>
<path d="M65.0544 46.5338H59.5847V0.00878906H65.0544V46.5338Z" fill="white"/>
<path d="M117.608 38.3257H123.078V32.8447H117.608V38.3257Z" fill="white"/>
<path d="M123.081 38.3257H128.555V32.8447H123.081V38.3257Z" fill="white"/>
<path d="M117.608 21.8885H123.078V16.4121H117.608V21.8885Z" fill="white"/>
<path d="M123.081 21.8885H128.555V16.4121H123.081V21.8885Z" fill="white"/>
<path d="M128.559 32.8456H134.029V27.3691H128.559V32.8456Z" fill="white"/>
<path d="M134.02 30.1033H139.494V24.627H134.02V30.1033Z" fill="white"/>
<path d="M139.504 30.1033H144.974V24.627H139.504V30.1033Z" fill="white"/>
<path d="M144.971 30.1033H150.445V24.627H144.971V30.1033Z" fill="white"/>
<path d="M106.675 30.1033H112.144V24.627H106.675V30.1033Z" fill="white"/>
<path d="M109.405 41.0621H114.879V35.5854H109.405V41.0621Z" fill="white"/>
<path d="M103.938 46.5432H109.408V41.0625H103.938V46.5432Z" fill="white"/>
<path d="M136.776 41.0621H131.307V35.5854H136.776V41.0621Z" fill="white"/>
<path d="M142.244 46.5432H136.774V41.0625H142.244V46.5432Z" fill="white"/>
<path d="M136.776 13.6714H131.307V19.1522H136.776V13.6714Z" fill="white"/>
<path d="M142.244 8.19434H136.774V13.6707H142.244V8.19434Z" fill="white"/>
<path d="M109.405 13.6714H114.875V19.1522H109.405V13.6714Z" fill="white"/>
<path d="M103.938 8.19434H109.408V13.6707H103.938V8.19434Z" fill="white"/>
<path d="M101.202 30.1033H106.676V24.627H101.202V30.1033Z" fill="white"/>
<path d="M95.7295 30.1033H101.199V24.627H95.7295V30.1033Z" fill="white"/>
<path d="M112.147 32.8456H117.617V27.3691H112.147V32.8456Z" fill="white"/>
<path d="M128.559 27.3686H134.029V21.8877H128.559V27.3686Z" fill="white"/>
<path d="M112.147 27.3686H117.617V21.8877H112.147V27.3686Z" fill="white"/>
<path d="M120.333 16.4115H125.802V10.9351H120.333V16.4115Z" fill="white"/>
<path d="M120.333 10.9344H125.802V5.45361H120.333V10.9344Z" fill="white"/>
<path d="M120.333 5.47636H125.802V0H120.333V5.47636Z" fill="white"/>
<path d="M120.333 49.2601H125.802V43.8018H120.333V49.2601Z" fill="white"/>
<path d="M120.333 54.7595H125.802V49.2612H120.333V54.7595Z" fill="white"/>
<path d="M120.333 43.8028H125.802V38.3262H120.333V43.8028Z" fill="white"/>
</svg>
