<svg width="" height="" viewBox="0 0 232 40" fill="none" xmlns="http://www.w3.org/2000/svg">
        <path d="M16.4509 15.6123C12.9582 14.8544 11.3384 14.6523 11.3384 12.9849C11.3384 11.4691 12.5027 9.90283 16.3496 9.90283C20.3991 9.90283 21.5633 11.5197 22.0695 13.5912H30.7758C30.1684 7.47756 26.372 1.86914 16.3496 1.86914C9.61742 1.86914 2.68273 5.60809 2.68273 13.3891C2.68273 20.7155 8.60506 22.8376 14.3755 24.0502C20.2979 25.3134 22.4238 25.4649 22.4238 27.5365C22.4238 29.406 20.8547 30.5176 17.362 30.5176C12.857 30.5176 11.2878 29.1534 10.4779 26.2228H1.77161C2.48026 32.2355 6.58033 38.5513 17.4126 38.5513C23.0819 38.5513 31.0795 35.8228 31.0795 27.1828C31.0795 19.9576 26.372 17.7344 16.4509 15.6123ZM53.423 1.86914C42.9451 1.86914 34.8968 9.80178 34.8968 20.2102C34.8968 30.6186 42.9451 38.5513 53.423 38.5513C63.901 38.5513 71.9493 30.6186 71.9493 20.2102C71.9493 9.80178 63.901 1.86914 53.423 1.86914ZM53.423 10.0544C59.0923 10.0544 63.243 14.2986 63.243 20.2102C63.243 26.1218 59.0923 30.366 53.423 30.366C47.7538 30.366 43.6031 26.1218 43.6031 20.2102C43.6031 14.2986 47.7538 10.0544 53.423 10.0544ZM86.0983 29.7091V2.52598H77.4932V37.8944H100.474V29.7091H86.0983ZM122.936 2.52598L115.495 27.486L108.054 2.52598H98.9427L110.028 37.8944H120.86L132.047 2.52598H122.936ZM161.259 10.7112V2.52598H136.861V37.8944H161.259V29.7091H145.466V24.1513H159.841V15.966H145.466V10.7112H161.259ZM186.704 37.8944H197.232L187.918 24.8081C192.272 23.3934 195.005 20.0081 195.005 14.3491C195.005 6.9723 190.348 2.52598 182.857 2.52598H167.064V37.8944H175.669V25.6165H178.352L186.704 37.8944ZM186.299 14.4502C186.299 16.8755 184.881 18.0881 181.895 18.0881H175.669V10.7112H181.895C184.78 10.7112 186.299 11.9744 186.299 14.4502ZM230.418 2.52598H220.801L213.866 16.926L206.931 2.52598H197.263L209.563 26.6776V37.8944H218.169V26.5765L230.418 2.52598Z" fill="white" />
</svg>