<svg width="" height="" viewBox="0 0 214 60" fill="none" xmlns="http://www.w3.org/2000/svg">
<g clip-path="url(#clip0_953_6764)">
<path d="M48.4671 14.6676L40.1307 10L27.3011 33.8223L18.3629 16.9037L10 21.5203L24.6019 49.1589L24.6401 49.232H29.8246H29.8511L48.4671 14.6676Z" fill="white"/>
<path d="M158.763 23.684C158.504 19.9238 157.554 17.2833 156.059 15.4057C154.426 13.3565 151.29 10.9454 146.083 11.0966C143.183 11.1799 141.202 11.8103 138.978 12.478C138.864 12.512 136.8 13.207 134.855 13.8612V11.1051H125.356V49.1562H134.855V24.0221C135.763 23.6687 136.82 23.2762 137.864 22.9245C140.91 21.8999 142.621 21.2712 144.468 21.1761C147.334 21.0282 149.012 23.0162 149.195 25.8148C149.356 28.2921 149.311 33.0498 149.311 33.0498L149.299 49.1562H158.798V27.9013C158.829 27.3304 158.897 25.6533 158.763 23.684Z" fill="white"/>
<path d="M119.547 20.3564L116.529 11.1266L104.149 15.3762V11.1045H94.6504V49.1555H104.149V25.6425L119.547 20.3564Z" fill="white"/>
<path d="M184.739 50.0006C173.277 50.0006 165.478 41.1565 165.478 30.1612C165.478 19.1659 173.277 10.3218 184.739 10.3218C196.244 10.3218 204 19.1659 204 30.1612C204 41.1565 196.244 50.0006 184.739 50.0006ZM184.739 19.499C178.967 19.499 174.927 24.5591 174.927 30.1595C174.927 35.7599 178.967 40.922 184.739 40.922C190.6 40.922 194.551 35.7599 194.551 30.1595C194.551 24.5591 190.601 19.499 184.739 19.499Z" fill="white"/>
<path d="M70.0261 40.5104C67.3434 40.5104 65.1516 39.2853 63.6329 37.3721L78.6211 32.2134L88.2441 28.9017C88.2209 28.4906 88.1861 28.0811 88.1396 27.6733C88.1231 27.522 88.1032 27.3708 88.0816 27.2196C88.0766 27.1788 88.07 27.1397 88.065 27.0989C88.0484 26.9868 88.0319 26.8746 88.0153 26.7642C88.007 26.7166 88.0004 26.669 87.9921 26.6198C87.9738 26.511 87.9556 26.404 87.9357 26.2952C87.9274 26.2511 87.9191 26.2069 87.9108 26.1627C87.8826 26.0132 87.8528 25.8653 87.823 25.7175C87.0802 22.1935 85.4487 18.9514 83.0513 16.316C79.5927 12.5133 74.9669 10.7207 70.0294 10.7207C65.0902 10.7207 60.4661 12.5133 57.0075 16.316C53.6352 20.0236 51.7766 24.9308 51.7766 30.1319C51.7766 35.3331 53.6335 40.2403 57.0075 43.9478C60.4661 47.7506 65.0919 49.5432 70.0294 49.5432C74.9685 49.5432 79.5927 47.7506 83.0513 43.9478C84.0792 42.8179 84.9662 41.5741 85.704 40.2471L76.6614 37.1427C75.1576 39.1851 72.9043 40.5104 70.0261 40.5104ZM70.0261 19.7501C73.0701 19.7501 75.4941 21.3422 77.0112 23.7346L61.31 29.1413C61.6897 24.0574 64.9974 19.7501 70.0261 19.7501Z" fill="white"/>
</g>
<defs>
<clipPath id="clip0_953_6764">
<rect width="194" height="40" fill="white" transform="translate(10 10)"/>
</clipPath>
</defs>
</svg>
