<svg width="96" height="96" viewBox="0 0 96 96" fill="none" xmlns="http://www.w3.org/2000/svg">
<path d="M55.0756 92.8682C51.2905 96.8893 44.9379 97.126 41.1886 93.0682C40.9637 92.82 40.727 92.5714 40.4792 92.3346C35.1902 87.0471 28.1998 84.5151 21.2802 84.7399C15.7552 84.9172 11.0947 80.5993 11.3076 75.0755L11.3094 75.0363L11.3149 74.823C11.3232 74.5566 11.3305 74.2931 11.3315 74.0224C11.3305 66.5468 8.18407 59.8157 3.13265 55.0725C-0.889224 51.2867 -1.12597 44.9344 2.93077 41.1851L3.14825 40.9848L3.33177 40.8096C3.44463 40.7006 3.55566 40.5894 3.66486 40.4751C8.95119 35.1878 11.4838 28.1969 11.259 21.2766C11.081 15.7525 15.3983 11.0919 20.9223 11.3174L21.1783 11.319L21.4582 11.3233C21.6298 11.3263 21.8004 11.3291 21.9748 11.3291C29.4505 11.3295 36.1821 8.18307 40.9252 3.13202C44.7094 -0.889551 51.062 -1.12582 54.8123 2.93177C55.0362 3.18019 55.2729 3.42861 55.5225 3.66488C60.8097 8.95265 67.8001 11.4846 74.7206 11.26C80.2446 11.0827 84.9052 15.4007 84.6932 20.9247V20.9729C84.6813 21.3105 84.6693 21.6385 84.6693 21.9773C84.6703 29.4534 87.8158 36.1843 92.8682 40.9277C96.8891 44.7135 97.1259 51.0656 93.0691 54.8151C92.8214 55.0399 92.5727 55.2764 92.335 55.5251C87.0487 60.8124 84.517 67.8033 84.7428 74.7229C84.9208 80.2472 80.6025 84.9074 75.0785 84.6826C74.7234 84.6828 74.3802 84.6707 74.026 84.6707C66.5494 84.6707 59.8187 87.8171 55.0756 92.8682Z" fill="#5CFF6D"/>
</svg>
