<svg width="96" height="96" viewBox="0 0 96 96" fill="none" xmlns="http://www.w3.org/2000/svg">
<path fill-rule="evenodd" clip-rule="evenodd" d="M22.9458 89.5419C24.9804 95.0591 31.3228 97.4136 36.6817 95.0007C43.4027 91.9659 51.3027 91.6134 58.6532 94.6582C59.0024 94.8027 59.3343 94.9542 59.6834 95.0987C65.0239 97.5697 71.1671 94.7455 73.2423 89.241C75.8388 82.345 81.1755 76.5018 88.5272 73.456C88.8616 73.3081 89.2022 73.1766 89.5378 73.0567C95.0541 71.0222 97.4083 64.6794 94.9963 59.3191C91.9609 52.5974 91.6093 44.6975 94.6533 37.3459C94.7959 37.0032 94.9446 36.6761 95.0983 36.3389L95.1057 36.3205C97.5645 30.9752 94.7406 24.8311 89.2366 22.7556C82.341 20.158 76.499 14.8213 73.4538 7.46823C73.305 7.13442 73.1735 6.79385 73.0542 6.45819C71.0196 0.941077 64.6772 -1.41374 59.3183 0.99948C52.5973 4.03422 44.6973 4.38678 37.3468 1.34159C37.1759 1.27089 37.0087 1.19835 36.8415 1.12581C36.6682 1.0505 36.4948 0.975196 36.3165 0.901426C30.9773 -1.56989 24.8341 1.2546 22.7589 6.75881C20.1612 13.6551 14.8245 19.4984 7.47273 22.5442C7.31906 22.6121 7.16417 22.6763 7.00926 22.7375C6.82731 22.81 6.64414 22.8786 6.46219 22.9434C0.945947 24.978 -1.40834 31.3207 1.00371 36.6811C4.03906 43.4028 4.39068 51.3027 1.34672 58.6539C1.20657 58.9905 1.06027 59.3114 0.912745 59.6421L0.894307 59.6796C-1.56446 65.0249 1.25943 71.1688 6.76339 73.2445C13.659 75.8418 19.501 81.1785 22.5474 88.5316C22.695 88.8654 22.8265 89.2063 22.9458 89.5419Z" fill="#FF0000"/>
</svg>
